<?xml version="1.0" encoding="utf-8"?>
<!-- Generator: Adobe Illustrator 24.3.0, SVG Export Plug-In . SVG Version: 6.00 Build 0)  -->
<svg version="1.1" id="Layer_1" xmlns="http://www.w3.org/2000/svg" xmlns:xlink="http://www.w3.org/1999/xlink" x="0px" y="0px"
	 viewBox="0 0 65 65" style="enable-background:new 0 0 65 65;" xml:space="preserve">
<style type="text/css">
	.st0{fill:#00AEEF;}
</style>
<path class="st0" d="M32.8,14.3c1,0,1.7-0.8,1.7-1.7V6.7c0-1-0.8-1.7-1.7-1.7c-1,0-1.7,0.8-1.7,1.7v5.8C31,13.5,31.8,14.3,32.8,14.3
	z"/>
<path class="st0" d="M40.9,17.2c0.4,0,0.9-0.2,1.2-0.5l4.7-4.7c0.7-0.7,0.7-1.8,0-2.5c-0.7-0.7-1.8-0.7-2.5,0l-4.7,4.7
	c-0.7,0.7-0.7,1.8,0,2.5C40,17,40.5,17.2,40.9,17.2z"/>
<path class="st0" d="M23.4,16.7c0.3,0.3,0.8,0.5,1.2,0.5c0.4,0,0.9-0.2,1.2-0.5c0.7-0.7,0.7-1.8,0-2.5l-4.7-4.7
	c-0.7-0.7-1.8-0.7-2.5,0c-0.7,0.7-0.7,1.8,0,2.5L23.4,16.7z"/>
<path class="st0" d="M48.5,29.7l-6.8-6.8c-1.3-1.3-3.1-2-4.9-2H26.1c-2.6,0-5.1,1-7,2.9l-0.6,0.6H4.7c-1,0-1.7,0.8-1.7,1.7v18.6
	c0,1,0.8,1.7,1.7,1.7h8.7l4.1,4.1c0.3,0.3,0.8,0.5,1.2,0.5h1.6c-0.6-0.9-1-1.9-1.1-3c-1.3-0.4-2.5-1.2-3.4-2.3
	c-2.6-3.1-2.2-7.8,0.9-10.4l6.6-5.6h13.2c0.5,0,0.9,0.2,1.2,0.5l4.9,4.9c1.6,1.6,4.2,1.6,5.7,0C50,33.7,50,31.2,48.5,29.7z"/>
<path class="st0" d="M62.6,29.7c0-1-0.8-1.7-1.7-1.7h-9.2c2.2,2.9,2,7.1-0.7,9.8c-1.4,1.4-3.3,2.2-5.3,2.2c-2,0-3.9-0.8-5.3-2.2
	L36,33.3H24.4l-5.8,4.9c-1.7,1.4-1.9,3.9-0.5,5.5c1.4,1.7,3.9,1.9,5.5,0.5c-1.7,1.4-1.9,3.9-0.5,5.5c1.4,1.7,3.9,1.9,5.5,0.5
	c-1.7,1.4-1.9,3.9-0.5,5.5c1.4,1.7,3.9,1.9,5.5,0.5l3.1-2.6L36.4,54c-1.7,1.4-1.9,3.9-0.5,5.5c1.4,1.7,3.9,1.9,5.5,0.5L53.3,50h7.5
	c1,0,1.7-0.8,1.7-1.7L62.6,29.7z"/>
</svg>
