<?xml version="1.0" encoding="utf-8"?>
<!-- Generator: Adobe Illustrator 24.3.0, SVG Export Plug-In . SVG Version: 6.00 Build 0)  -->
<svg version="1.1" id="Layer_1" xmlns="http://www.w3.org/2000/svg" xmlns:xlink="http://www.w3.org/1999/xlink" x="0px" y="0px"
	 viewBox="0 0 65 65" style="enable-background:new 0 0 65 65;" xml:space="preserve">
<style type="text/css">
	.st0{fill-rule:evenodd;clip-rule:evenodd;fill:#00AEEF;}
	.st1{fill:#FFFFFF;}
</style>
<path class="st0" d="M16.8,49.9c-1.1,0.6-2.4,1-3.8,1c-4.4,0-8-3.6-8-8c0-3.1,1.8-5.8,4.4-7.1V30C6.8,28.7,5,26,5,22.8
	c0-4.4,3.6-8,8-8c1.6,0,3.1,0.5,4.3,1.3l6.9-4.1c0-4.4,3.6-8,8-8c4.2,0,7.7,3.2,8,7.4l7.4,4.5c1.1-0.6,2.4-1,3.8-1c4.4,0,8,3.6,8,8
	c0,3.1-1.7,5.7-4.3,7.1v6c2.5,1.3,4.3,4,4.3,7.1c0,4.4-3.6,8-8,8c-1.6,0-3.1-0.5-4.3-1.3l-6.9,4.1c0,4.4-3.6,8-8,8
	c-4.2,0-7.7-3.2-8-7.4L16.8,49.9z M32.2,20c2.4,0,4.6-1.1,6.1-2.8l5.5,3.3c-0.2,0.7-0.3,1.5-0.3,2.3c0,3.6,2.4,6.7,5.7,7.7v4.8
	c-3.3,1-5.7,4-5.7,7.7c0,0.6,0.1,1.2,0.2,1.8l-5.8,3.5c-1.5-1.5-3.5-2.4-5.7-2.4c-2.4,0-4.6,1.1-6.1,2.8l-5.5-3.3
	c0.2-0.7,0.3-1.5,0.3-2.3c0-3.6-2.4-6.6-5.6-7.6v-4.8c3.2-1,5.6-4,5.6-7.6c0-0.6-0.1-1.2-0.2-1.8l5.8-3.5C28,19.1,30,20,32.2,20z"/>
<g>
	<path d="M-704.3,1120.7c-6.4,0-12.7,0-19.1,0c-1-0.1-1.9-0.3-2.9-0.4c-5.3-0.3-10.6-0.3-15.8-1c-12.3-1.7-24.7-3.4-36.9-5.9
		c-23.9-4.8-46.7-13-68.6-23.5c-29.7-14.2-56.8-32.3-81.4-54.1c-14.7-13.1-28.2-27.3-40.4-42.8c-19.1-24.3-34.5-50.8-46.1-79.5
		c-11.9-29.4-21.2-59.5-24.8-91.1c-1.1-9.7-1.6-19.4-2.1-29.1c-0.4-8-0.4-16.1-0.6-24.2c0-0.8-0.2-1.5-0.3-2.3c0-14.7,0-29.4,0-44.1
		c0.1-0.9,0.3-1.8,0.3-2.7c0.1-9.1,0.2-18.2,0.4-27.4c0.2-14.5,0.4-29,0.7-43.5c0.5-19.6,1-39.3,1.6-58.9
		c0.3-11.3,0.5-22.6,0.9-33.9c0.6-18.5,1.3-37,2-55.5c0.1-1.4,0.1-2.8-0.1-4.2c-1.3-8.6,4.1-16.7,12.6-18.8
		c7.9-1.9,15.7-3.8,23.5-5.7c12.2-2.9,24.3-5.8,36.5-8.7c5.6-1.3,11.3-2.3,16.7-4.2c10-3.7,17.3-10.4,20.4-21
		c2.3-7.7,1.6-15.6,0-23.3c-3.3-16.5-7-33-10.7-49.4c-3.2-14.6-6.6-29.2-9.9-43.7c-4.6-20.2-9.2-40.4-13.8-60.6
		c-2.9-12.8-5.8-25.6-8.8-38.4c-1-4.6-2.2-9.1-3.3-13.7c-2.1,0.2-4.2,0.6-6.2,0.6c-15.1-0.4-25.1-12.6-25-25.5
		c0.2-14.8,13.8-27.8,30.3-24.2c11.1,2.4,18,9.7,19.7,20.9c1.5,10.1-2.1,18.4-10.6,24.4c-1.1,0.8-1.2,1.4-0.7,2.6
		c11.2,23.1,22,46.5,33.6,69.4c13.8,27.1,29,53.5,47.4,77.7c6.4,8.4,13.2,16.4,21.3,23.2c4.9,4.1,10.4,7,17,7.3
		c7.8,0.4,14.2-3.1,19.7-8.2c6.6-6,11.6-13.2,16.2-20.8c11.3-18.5,20.4-38.2,29.3-57.9c11.4-25.3,22.7-50.7,33.7-76.2
		c7.7-17.8,14.9-35.9,22.3-53.9c0.2-0.5,0.2-1.2,0-1.7c-2.3-6-4.5-11.9-6.9-17.9c-0.3-0.8-1-1.7-1.8-2.2
		c-9.1-6.5-14.1-15.2-14.8-26.5c-0.8-14.6,7.8-28.1,21.5-33.3c3.2-1.2,6.6-1.7,10-2.5c1.6,0,3.1,0,4.7,0c0.5,0.1,0.9,0.3,1.4,0.4
		c16.7,1.7,30.5,15.7,30.3,34.1c-0.1,12.3-5.8,22-16.2,28.7c-0.7,0.4-1.4,1-1.7,1.7c-3,5.6-6,11.1-8.9,16.8c-0.4,0.8-0.5,2-0.1,2.9
		c11.2,30.8,23.5,61.2,37.1,91c14.1,31.2,29.5,61.7,47.8,90.8c6,9.6,12.6,18.8,21.7,25.8c6.3,4.8,13.3,7.8,21.5,7.4
		c6.6-0.3,12.4-2.9,17.8-6.5c9.1-6.2,16-14.6,22.7-23.3c15.9-20.5,28.9-42.8,41-65.6c11.8-22.3,22.3-45.3,32.2-68.5
		c1.7-4,3.4-8.1,5-12.2c-14.2-7.1-17.7-22.1-12.9-33.1c5.1-11.7,17.7-17.8,30-14.3c12.1,3.5,18.9,14.3,18.2,25.9
		c-0.4,6.6-3.1,12.2-8,16.7c-6.3,5.8-13.8,7.6-22,6.3c-0.2,0.3-0.3,0.4-0.4,0.5c-2.7,13.2-5.5,26.4-8.2,39.6
		c-3.9,18.9-7.8,37.8-11.9,56.7c-4.8,22.2-9.8,44.3-14.8,66.4c-3.3,14.8-6.8,29.5-10.4,44.3c-1.4,5.8-3.1,11.6-5,17.3
		c-4.2,12.6,2,25.8,14.7,29.9c6.4,2.1,13,3.5,19.6,4.9c11.1,2.3,22.3,4.5,33.5,6.5c9.6,1.6,19.2,2.9,28.8,4.1
		c7.5,1,13.5,4.1,17.7,10.6c0.4,0.6,0.6,1.3,0.6,1.9c0.3,10.3,0.6,20.6,0.9,30.9c0.4,18,0.9,36,1.3,54.1c0.5,21.1,0.9,42.1,1.3,63.2
		c0.4,23.5,0.6,47.1,1,70.6c0,1.8,0.2,3.6,0.3,5.5c0,17.1,0,34.2,0,51.3c-0.1,0.6-0.3,1.2-0.3,1.9c-0.3,17.2-0.7,34.5-2.7,51.6
		c-0.9,7.3-1.6,14.7-3.2,21.9c-2.4,11.2-5.2,22.3-8.2,33.3c-7.6,28-18.5,54.8-32.8,80.1c-19.1,33.6-43.4,62.8-73.3,87.4
		c-19.6,16.1-40.8,29.7-63.5,40.8c-40,19.5-82,31.5-126.4,35.3C-700,1120.2-702.2,1120.5-704.3,1120.7z M-1016.8,501
		c0,4.8,0,9.4,0,14c-0.3,49.7-0.4,99.4-1,149.1c-0.3,30.2-1.6,60.3-2,90.5c-0.3,19.9-0.2,39.7,0.4,59.6c0.3,10.2,1.5,20.4,3.1,30.5
		c2.2,15.1,6.5,29.7,11.2,44.2c14.2,43.7,36.2,83,67.9,116.5c31.4,33.2,68.9,57.2,111.5,73.4c25,9.5,50.7,16.2,77.3,19.5
		c11.2,1.4,22.5,2.5,33.8,2.8c17.2,0.5,34.3-1.5,51.2-4.5c23.9-4.2,47-11.3,69.2-21.2c29.6-13.1,56.5-30.4,80.6-52
		c24-21.4,43.8-46.1,59.3-74.3c12.4-22.5,21.2-46.4,28.5-71c6.9-23.4,12.1-47.1,13.7-71.5c1.1-16.4,2-32.8,2-49.1
		c0.1-40.6-0.2-81.2-0.7-121.7c-0.4-28.6-1.3-57.2-2-85.9c-0.4-15-0.9-30-1.3-44.9c0-1.5-0.6-2-2-2.4c-27.5-8.2-55.2-15.6-83.3-21.2
		c-21.3-4.2-42.7-8.2-64.1-11.7c-16.3-2.6-32.7-4.3-49.1-6.1c-12.6-1.4-25.2-2.6-37.8-3.3c-18-1-36-2-54-2.1
		c-23.5-0.1-47.1,0.4-70.6,1.3c-14.8,0.5-29.6,2-44.4,3.3c-11.5,1-23,2.3-34.5,3.8c-13.8,1.9-27.7,3.9-41.4,6.3
		c-15.1,2.6-30.3,5.3-45.3,8.7c-20.1,4.5-40,9.7-59.9,14.7C-1006.1,497.7-1011.5,499.4-1016.8,501z"/>
	<path class="st1" d="M-857.1,243.9c-3.7,12.8-8.4,25-14.8,36.5c-3.7,6.6-7.9,13-11.6,19.6c-5.3,9.3-4.2,18.1,3.3,25.6
		c8.4,8.4,17.7,15.7,27.6,22.4c3.2,2.1,6.7,3.6,10.5,4.1c5.2,0.6,9.4-1.7,12.9-5.2c7.3-7.2,14.4-14.6,21.5-21.9
		c5.7-5.9,6.2-11.6,2.5-18.9c-1.4-2.7-3.1-5.4-4.9-7.8c-7.1-9.6-14.1-19.2-19.3-30c-4-8.4-7.2-17-9.7-25.9
		c12.5-6.7,16.8-19.5,13-30.8c-3.8-11.3-13.8-17.5-24.6-17.2c-12.9,0.4-22.6,9.9-24.4,22.4C-876.8,227.5-870.2,237.9-857.1,243.9z"
		/>
	<path d="M-580.4,243.2c2.2,6,4.2,12,6.6,18c5.3,13.3,13.3,24.9,21.8,36.2c2.2,3,4.2,6.2,5.9,9.5c3.3,6.3,2.8,12.3-2.3,17.5
		c-7.3,7.6-14.6,15.4-22.3,22.7c-6.4,6.2-12.9,7-20.6,2.4c-5.8-3.5-11.2-7.7-16.7-11.9c-4.1-3.1-8.1-6.4-11.8-10
		c-9.8-9.5-10.9-18.2-3.7-29.9c5.9-9.6,12-19,16.3-29.5c3.1-7.7,5.7-15.7,8.6-23.5c0.4-1.2,0-1.6-1-2.1c-10.3-5-15.2-13.2-14.9-24.6
		c0.3-11.6,10.4-22,21.9-23.4c13.6-1.6,25.8,7.5,27.9,20.7c1.8,10.9-2.9,21.2-13.6,26.8C-578.7,242.4-579.4,242.7-580.4,243.2z"/>
	<path d="M-857.1,243.9c-13.1-6-19.7-16.4-18.1-27.1c1.9-12.5,11.5-22,24.4-22.4c10.7-0.3,20.7,5.9,24.6,17.2
		c3.8,11.3-0.4,24.1-13,30.8c2.4,8.9,5.7,17.5,9.7,25.9c5.2,10.8,12.2,20.4,19.3,30c1.8,2.5,3.5,5.1,4.9,7.8
		c3.7,7.3,3.2,13-2.5,18.9c-7.1,7.4-14.2,14.7-21.5,21.9c-3.5,3.5-7.7,5.7-12.9,5.2c-3.9-0.4-7.4-1.9-10.5-4.1
		c-9.9-6.6-19.2-13.9-27.6-22.4c-7.5-7.6-8.6-16.3-3.3-25.6c3.7-6.6,7.9-13,11.6-19.6C-865.6,268.9-860.8,256.7-857.1,243.9z"/>
	<path d="M-635.8,789.2c-9.8-19-19.4-37.6-29.2-56.7c10.9,0.5,21.5,1.1,32.2,1.6c0-22.6,0-45.1,0-67.8c-45.1,0-90.2,0-135.7,0
		c43.1,98.8,86.2,197.5,129.5,296.6c64.4-149.4,128.7-298.3,193-447.3c0.1,0,0.2,0,0.3,0.1c0.2,6,0.4,11.9,0.6,17.9
		c0.8,22.5,1.6,45.1,2.4,67.6c0.5,14.7,0.9,29.4,1.4,44.1c0.8,25.3,1.7,50.6,2.4,75.9c0.5,19.4,0.9,38.7,1.1,58.1
		c0.1,13.9-0.2,27.8-0.6,41.8c-0.7,23.1-5.9,45.2-14,66.7c-13,34.6-31.3,66-56.1,93.6c-24,26.7-52.4,47.6-84.8,63
		c-20,9.5-40.9,16.5-62.6,21.1c-14.6,3.1-29.3,4.9-44.3,5.7c-13.7,0.7-27.4,0.4-41.1-1c-40.7-4.2-78.6-16.7-113.4-38.4
		c-38.9-24.2-69.5-56.5-93.4-95.4c-14.1-22.8-25.1-47.1-32.6-72.8c-3.2-10.8-5.4-21.8-5.7-33.1c-0.8-29.5-1.4-59.1-1.9-88.6
		c-0.4-27.8-0.6-55.6-0.9-83.3c-0.3-24.1-0.5-48.2-0.8-72.3c-0.3-21.3-0.7-42.5-1.1-63.8c0-1.6,0.5-2.1,2-2.6
		c26.2-7.7,52.6-14.4,79.4-19.6c17-3.3,34.1-6.3,51.2-8.9c13.1-2.1,26.3-3.7,39.5-5c12.6-1.3,25.2-2.2,37.8-3.1
		c24.8-1.8,49.7-2.5,74.6-2c16.5,0.3,33.1,1,49.6,2c15.2,0.9,30.4,2.2,45.6,3.9c15.1,1.7,30.1,3.8,45.1,6.2
		c15.4,2.5,30.6,5.6,46,8.4c0.3,0.1,0.7,0.2,1.3,0.3C-558,597.8-596.8,693.3-635.8,789.2z M-686.5,885.3
		c-42.2-97.6-84.2-194.9-126.4-292.6c-44.7,97.8-89.3,195.1-133.9,292.5c46.6,0,92.9,0,139.3,0c0.3-22.3,0.7-44.6,1-66.9
		c-13.4-0.4-26.5-0.7-39.9-1.1c9.9-23.8,19.7-47.2,29.6-71.1c2.9,6.7,5.5,13,8.2,19.3c16.6,39.2,33.1,78.4,49.6,117.6
		c0.7,1.8,1.5,2.4,3.5,2.4c22.1-0.1,44.1-0.1,66.2-0.1C-688.4,885.3-687.6,885.3-686.5,885.3z"/>
</g>
</svg>
