<?xml version="1.0" encoding="utf-8"?>
<!-- Generator: Adobe Illustrator 24.3.0, SVG Export Plug-In . SVG Version: 6.00 Build 0)  -->
<svg version="1.1" id="Layer_1" xmlns="http://www.w3.org/2000/svg" xmlns:xlink="http://www.w3.org/1999/xlink" x="0px" y="0px"
	 viewBox="0 0 65 65" style="enable-background:new 0 0 65 65;" xml:space="preserve">
<style type="text/css">
	.st0{fill-rule:evenodd;clip-rule:evenodd;fill:#00AEEF;}
</style>
<path class="st0" d="M63.8,41.7l-4.2-17.9C58.4,19,54,14,47.2,14H17.8c-5,0-10.8,3.2-12.4,9.8L1.2,41.7c-1.1,4.9,2.6,9.5,7.6,9.5
	c2.1,0,4.1-1.1,5.2-3l3.3-5.4c0.6-0.9,1.6-1.5,2.7-1.5h25.2c1.1,0,2.1,0.6,2.7,1.5l3.3,5.4c1.1,1.8,3.1,3,5.2,3
	C61.2,51.3,64.9,46.6,63.8,41.7z M24.6,29.5h-2.1v2.1c0,1-0.8,1.8-1.8,1.8c-1,0-1.8-0.8-1.8-1.8v-2.1h-2.1c-1,0-1.8-0.8-1.8-1.8
	c0-1,0.8-1.8,1.8-1.8h2.1v-2.1c0-1,0.8-1.8,1.8-1.8c1,0,1.8,0.8,1.8,1.8v2.1h2.1c1,0,1.8,0.8,1.8,1.8C26.4,28.7,25.6,29.5,24.6,29.5
	z M40.4,29.5c-1,0-1.8-0.8-1.8-1.8c0-1,0.8-1.8,1.8-1.8c1,0,1.8,0.8,1.8,1.8C42.2,28.7,41.4,29.5,40.4,29.5z M44.4,33.5
	c-1,0-1.8-0.8-1.8-1.8c0-1,0.8-1.8,1.8-1.8c1,0,1.8,0.8,1.8,1.8C46.2,32.7,45.4,33.5,44.4,33.5z M44.4,25.6c-1,0-1.8-0.8-1.8-1.8
	c0-1,0.8-1.8,1.8-1.8c1,0,1.8,0.8,1.8,1.8C46.2,24.8,45.4,25.6,44.4,25.6z M48.3,29.5c-1,0-1.8-0.8-1.8-1.8c0-1,0.8-1.8,1.8-1.8
	c1,0,1.8,0.8,1.8,1.8C50.1,28.7,49.3,29.5,48.3,29.5z"/>
</svg>
