<?xml version="1.0" encoding="utf-8"?>
<!-- Generator: Adobe Illustrator 24.3.0, SVG Export Plug-In . SVG Version: 6.00 Build 0)  -->
<svg version="1.1" id="Layer_1" xmlns="http://www.w3.org/2000/svg" xmlns:xlink="http://www.w3.org/1999/xlink" x="0px" y="0px"
	 viewBox="0 0 65 65" style="enable-background:new 0 0 65 65;" xml:space="preserve">
<style type="text/css">
	.st0{fill:#00AEEF;}
</style>
<path class="st0" d="M5.9,24.5c0.3,1.1,0.7,2.1,1.3,3.1l-1.6,2c-0.5,0.6-0.5,1.6,0.1,2.1l2.7,2.7C9,35,10,35,10.6,34.5l2-1.6
	c1,0.6,2.1,1,3.2,1.4l0.3,2.5c0.1,0.8,0.8,1.4,1.6,1.4h3.8c0.8,0,1.5-0.6,1.6-1.4l0.3-2.4c1.2-0.3,2.3-0.8,3.4-1.4l1.9,1.5
	c0.6,0.5,1.6,0.5,2.1-0.1l2.7-2.7c0.6-0.6,0.6-1.5,0.1-2.1l-1.5-1.9c0.6-1.1,1.1-2.2,1.4-3.4l2.3-0.3c0.8-0.1,1.4-0.8,1.4-1.6v-3.8
	c0-0.8-0.6-1.5-1.4-1.6l-2.2-0.3c-0.3-1.2-0.8-2.3-1.4-3.3l1.4-1.7c0.5-0.6,0.5-1.6-0.1-2.1l-2.7-2.7c-0.6-0.6-1.5-0.6-2.1-0.1
	L27,8.1c-1.1-0.6-2.3-1.1-3.5-1.5l-0.3-2.2C23.1,3.6,22.4,3,21.6,3h-3.8c-0.8,0-1.5,0.6-1.6,1.4l-0.3,2.2c-1.3,0.3-2.5,0.8-3.6,1.5
	l-1.8-1.4C10,6.2,9,6.3,8.5,6.9L5.8,9.6c-0.6,0.6-0.6,1.5-0.1,2.1l1.5,1.9c-0.6,1.1-1,2.2-1.3,3.4l-2.3,0.3C2.6,17.3,2,18,2,18.8
	v3.8c0,0.8,0.6,1.5,1.4,1.6L5.9,24.5z M19.7,14.2c3.5,0,6.3,2.8,6.3,6.3c0,3.5-2.8,6.3-6.3,6.3c-3.5,0-6.3-2.8-6.3-6.3
	C13.4,17,16.2,14.2,19.7,14.2z"/>
<path class="st0" d="M57.4,25.4l-2-1.7c-0.6-0.5-1.5-0.5-2.1,0.1l-1.1,1c-0.9-0.5-1.9-0.8-3-1l-0.3-1.5c-0.2-0.8-0.9-1.3-1.7-1.3
	l-2.6,0.2c-0.8,0.1-1.4,0.7-1.5,1.5L43,24.4c-1,0.4-2,0.9-2.8,1.5L38.9,25c-0.7-0.4-1.6-0.3-2.1,0.3l-1.7,2
	c-0.5,0.6-0.5,1.5,0.1,2.1l1.2,1.2c-0.4,0.9-0.7,1.9-0.9,2.8l-1.7,0.3c-0.8,0.2-1.3,0.9-1.3,1.7l0.2,2.6c0.1,0.8,0.7,1.4,1.5,1.5
	l1.8,0.1c0.3,0.9,0.8,1.7,1.3,2.4l-1,1.5c-0.4,0.7-0.3,1.6,0.3,2.1l2,1.7c0.6,0.5,1.5,0.5,2.1-0.1l1.3-1.2c0.9,0.4,1.8,0.7,2.7,0.9
	l0.4,1.8c0.2,0.8,0.9,1.3,1.7,1.3l2.6-0.2c0.8-0.1,1.4-0.7,1.5-1.5l0.1-1.8c1-0.3,1.9-0.8,2.7-1.4l1.4,1c0.7,0.4,1.6,0.3,2.1-0.3
	l1.7-2c0.5-0.6,0.5-1.5-0.1-2.1l-1.2-1.2c0.4-0.9,0.7-1.9,0.9-2.8l1.6-0.3c0.8-0.2,1.3-0.9,1.3-1.7L61.3,33
	c-0.1-0.8-0.7-1.4-1.5-1.5l-1.6-0.1c-0.3-0.9-0.8-1.8-1.3-2.6l0.9-1.3C58.1,26.9,58,26,57.4,25.4z M47.5,40.6
	c-2.8,0.2-5.3-1.9-5.6-4.7c-0.2-2.8,1.9-5.3,4.7-5.6c2.8-0.2,5.3,1.9,5.6,4.7C52.4,37.9,50.3,40.4,47.5,40.6z"/>
<path class="st0" d="M15.1,47.7c-0.8,0.1-1.4,0.8-1.4,1.6l0,1.6c0,0.8,0.6,1.5,1.4,1.6l1.2,0.2c0.2,0.7,0.5,1.4,0.8,2.1l-0.8,0.9
	c-0.5,0.6-0.5,1.5,0.1,2.1l1.1,1.2c0.6,0.6,1.5,0.6,2.1,0.1l1-0.7c0.7,0.4,1.4,0.7,2.1,0.9l0.1,1.2c0.1,0.8,0.8,1.4,1.6,1.4l1.6,0
	c0.8,0,1.5-0.6,1.6-1.4l0.1-1.2c0.8-0.2,1.6-0.5,2.3-0.9l0.9,0.7c0.6,0.5,1.5,0.5,2.1-0.1l1.2-1.1c0.6-0.6,0.6-1.5,0.1-2.1l-0.7-0.9
	c0.4-0.7,0.7-1.4,1-2.2l1.1-0.1c0.8-0.1,1.4-0.8,1.4-1.6l0-1.6c0-0.8-0.6-1.5-1.4-1.6l-1-0.1c-0.2-0.8-0.5-1.5-0.9-2.2l0.6-0.8
	c0.5-0.6,0.5-1.5-0.1-2.1l-1.1-1.2c-0.6-0.6-1.5-0.6-2.1-0.1l-0.8,0.6c-0.7-0.4-1.5-0.8-2.3-1l-0.1-1c-0.1-0.8-0.8-1.4-1.6-1.4
	l-1.6,0c-0.8,0-1.5,0.6-1.6,1.4l-0.1,1c-0.8,0.2-1.7,0.5-2.4,1l-0.8-0.7c-0.6-0.5-1.5-0.5-2.1,0.1l-1.2,1.1
	c-0.6,0.6-0.6,1.5-0.1,2.1l0.7,0.9c-0.4,0.7-0.7,1.4-0.9,2.2L15.1,47.7z M25.5,45.8c2.3,0,4.2,1.9,4.1,4.3c0,2.3-1.9,4.2-4.3,4.1
	s-4.2-1.9-4.1-4.3C21.3,47.7,23.2,45.8,25.5,45.8z"/>
</svg>
