<?xml version="1.0" encoding="utf-8"?>
<!-- Generator: Adobe Illustrator 24.3.0, SVG Export Plug-In . SVG Version: 6.00 Build 0)  -->
<svg version="1.1" id="Layer_1" xmlns="http://www.w3.org/2000/svg" xmlns:xlink="http://www.w3.org/1999/xlink" x="0px" y="0px"
	 viewBox="0 0 65 65" style="enable-background:new 0 0 65 65;" xml:space="preserve">
<style type="text/css">
	.st0{fill:#00AEEF;}
</style>
<path class="st0" d="M53.4,42.6c2.2,0,4.2-0.9,5.7-2.4c1.5-1.5,2.4-3.6,2.4-5.7v-8.7c0-2-0.7-3.9-2-5.4c-1.3-1.5-3.1-2.4-5.1-2.7
	L24,13.9c-1.6-0.2-3.2,0.1-4.6,0.8l-0.7-5.5c-0.2-2-1.2-3.8-2.7-5.1S12.7,2,10.7,2h-6C4,2,3.3,2.3,2.8,2.8S2,4,2,4.7
	c0,0.7,0.3,1.4,0.8,1.9S4,7.4,4.7,7.4h6c0.7,0,1.3,0.2,1.8,0.7c0.5,0.4,0.8,1.1,0.9,1.7l4.3,36.4c0.2,1.8,1,3.4,2.2,4.7
	c1.2,1.3,2.8,2.1,4.6,2.4c-0.5,0.8-0.8,1.7-0.8,2.7c0,1,0.2,1.9,0.7,2.8c0.5,0.8,1.1,1.5,2,2c0.8,0.5,1.8,0.8,2.7,0.8
	c1,0,1.9-0.2,2.7-0.7c0.8-0.5,1.5-1.2,2-2c0.5-0.8,0.7-1.8,0.7-2.7c0-1-0.3-1.9-0.7-2.7H46c-0.5,0.8-0.7,1.8-0.7,2.7
	c0,1.4,0.6,2.8,1.6,3.8s2.4,1.6,3.8,1.6c1.4,0,2.8-0.6,3.8-1.6s1.6-2.4,1.6-3.8c0-1-0.3-1.9-0.8-2.7h3.5c0.7,0,1.4-0.3,1.9-0.8
	c0.5-0.5,0.8-1.2,0.8-1.9c0-0.7-0.3-1.4-0.8-1.9c-0.5-0.5-1.2-0.8-1.9-0.8H25.7c-0.7,0-1.3-0.2-1.8-0.7c-0.5-0.4-0.8-1.1-0.9-1.7
	l-0.4-3.2c0.6,0.1,1.2,0.2,1.8,0.2H53.4z"/>
</svg>
