<?xml version="1.0" encoding="utf-8"?>
<!-- Generator: Adobe Illustrator 24.3.0, SVG Export Plug-In . SVG Version: 6.00 Build 0)  -->
<svg version="1.1" id="Layer_1" xmlns="http://www.w3.org/2000/svg" xmlns:xlink="http://www.w3.org/1999/xlink" x="0px" y="0px"
	 viewBox="0 0 66 65" style="enable-background:new 0 0 66 65;" xml:space="preserve">
<style type="text/css">
	.st0{fill:#00AEEF;}
</style>
<path class="st0" d="M57.5,25.3c0-2.2-0.9-4.3-2.4-5.9c-1.6-1.6-3.7-2.4-5.9-2.4c-8.7,0-24.6,0-33.3,0c-2.2,0-4.3,0.9-5.9,2.4
	c-1.6,1.6-2.4,3.7-2.4,5.9v15.1c0,2.2,0.9,4.3,2.4,5.9c1.6,1.6,3.7,2.4,5.9,2.4h5c1.1,0,2.3-0.4,3.2-1.1l4.4-3.3
	c0.1-0.1,0.3-0.2,0.5-0.2H36c0.2,0,0.3,0.1,0.5,0.2l4.4,3.3c0.9,0.7,2,1.1,3.2,1.1h5c2.2,0,4.3-0.9,5.9-2.4c1.6-1.6,2.4-3.7,2.4-5.9
	V25.3z M28,30.6H37c1.3,0,2.3-1,2.3-2.3s-1-2.3-2.3-2.3H28c-1.3,0-2.3,1-2.3,2.3S26.7,30.6,28,30.6z"/>
<path class="st0" d="M4.9,22.5l-0.6,0.1C1.8,23.1,0,25.3,0,27.8V38c0,2.5,1.8,4.7,4.3,5.2l0.6,0.1c-0.2-0.9-0.4-1.9-0.4-2.8
	c0-4.5,0-10.6,0-15.1C4.5,24.4,4.7,23.4,4.9,22.5L4.9,22.5z"/>
<path class="st0" d="M60.1,22.5c0.2,0.9,0.4,1.9,0.4,2.8v15.1c0,1-0.1,1.9-0.4,2.8l0.6-0.1c2.5-0.5,4.3-2.7,4.3-5.2V27.8
	c0-2.5-1.8-4.7-4.3-5.2L60.1,22.5z"/>
</svg>
