<?xml version="1.0" encoding="utf-8"?>
<!-- Generator: Adobe Illustrator 24.3.0, SVG Export Plug-In . SVG Version: 6.00 Build 0)  -->
<svg version="1.1" id="Layer_1" xmlns="http://www.w3.org/2000/svg" xmlns:xlink="http://www.w3.org/1999/xlink" x="0px" y="0px"
	 viewBox="0 0 65 65" style="enable-background:new 0 0 65 65;" xml:space="preserve">
<style type="text/css">
	.st0{fill-rule:evenodd;clip-rule:evenodd;fill:#00AEEF;}
	.st1{fill:#00AEEF;}
</style>
<path class="st0" d="M38.1,5.6l15.5,9c0,0,0,0,0,0c3.7,2.1,5.9,6,5.9,10.2v16.4c0,4.1-2.2,8-5.9,10.2c0,0,0,0,0,0c0,0,0,0,0,0
	l-15.5,9c0,0,0,0,0,0c-1.8,1-3.8,1.6-5.9,1.6s-4.1-0.5-5.9-1.6 M26.4,60.3l-15.5-9c0,0,0,0,0,0c0,0,0,0,0,0C7.2,49.2,5,45.3,5,41.1
	V24.7c0-4.1,2.2-8,5.9-10.2c0,0,0,0,0,0c0,0,0,0,0,0l15.5-9c3.6-2.1,8.1-2.1,11.7,0 M16.4,41.8c-0.2-0.1-0.4-0.4-0.4-0.6V24.7
	c0-0.3,0.1-0.5,0.4-0.6l15.5-9c0.2-0.1,0.5-0.1,0.7,0l15.5,9c0.2,0.1,0.4,0.4,0.4,0.6v16.4c0,0.3-0.1,0.5-0.4,0.6l-15.5,9
	c-0.1,0.1-0.2,0.1-0.4,0.1c-0.1,0-0.3,0-0.4-0.1L16.4,41.8z"/>
<path class="st1" d="M41,28l-8.5-4.9c-0.1-0.1-0.3-0.1-0.4,0L23.5,28c-0.1,0.1-0.2,0.2-0.2,0.4v9c0,0.1,0.1,0.3,0.2,0.4l8.5,4.9
	c0.1,0,0.1,0.1,0.2,0.1c0.1,0,0.1,0,0.2-0.1l8.5-4.9c0.1-0.1,0.2-0.2,0.2-0.4v-9C41.2,28.3,41.1,28.1,41,28z"/>
</svg>
