<?xml version="1.0" encoding="utf-8"?>
<!-- Generator: Adobe Illustrator 24.3.0, SVG Export Plug-In . SVG Version: 6.00 Build 0)  -->
<svg version="1.1" id="Layer_1" xmlns="http://www.w3.org/2000/svg" xmlns:xlink="http://www.w3.org/1999/xlink" x="0px" y="0px"
	 viewBox="0 0 65 65" style="enable-background:new 0 0 65 65;" xml:space="preserve">
<style type="text/css">
	.st0{fill:#00AEEF;}
</style>
<path class="st0" d="M23.9,52.1l0.2-0.1L23.9,52.1c0.3,0.9,0.6,1.7,0.9,2.5c-4.1-1.5-7.7-4.2-10.4-7.6c2.1-0.8,4.8-1.5,7.8-1.9
	C22.6,47.6,23.2,50,23.9,52.1z M29.3,15.2L29,15.1L29.3,15.2c0.7-2.2,1.5-3.6,2.1-4.5c0.3-0.4,0.6-0.7,0.8-0.9s0.4-0.2,0.4-0.2
	c0.1,0,0.2,0,0.4,0.2s0.5,0.5,0.8,0.9c0.6,0.9,1.4,2.3,2.1,4.5c0.6,1.7,1.1,3.7,1.4,5.8c-1.6,0.1-3.2,0.2-4.9,0.2s-3.3-0.1-4.9-0.2
	C28.2,18.9,28.7,16.9,29.3,15.2z M29.3,50.3l-0.2,0.1L29.3,50.3c-0.6-1.7-1.1-3.7-1.4-5.8c1.6-0.1,3.2-0.2,4.9-0.2
	c1.7,0,3.3,0.1,4.9,0.2c-0.4,2.1-0.9,4.1-1.4,5.8c-0.7,2.2-1.5,3.6-2.1,4.5c-0.3,0.4-0.6,0.7-0.8,0.9S33,55.9,33,55.9
	c-0.1,0-0.2,0-0.4-0.2s-0.5-0.5-0.8-0.9C30.8,53.9,30,52.5,29.3,50.3z M24.8,10.9c-0.3,0.8-0.6,1.6-0.9,2.5l0,0
	c-0.7,2.1-1.3,4.5-1.7,7c-3-0.5-5.6-1.1-7.8-1.9C17.1,15,20.7,12.4,24.8,10.9z M32.7,61.7c16,0,29-13,29-29s-13-29-29-29
	s-29,13-29,29C3.8,48.7,16.7,61.7,32.7,61.7z M9.5,32.7c0-3.3,0.7-6.5,2-9.3c2.8,1.2,6.2,2,10,2.6c-0.2,2.2-0.3,4.4-0.3,6.7
	s0.1,4.5,0.3,6.7c-3.8,0.6-7.3,1.5-10,2.6C10.2,39.2,9.5,36,9.5,32.7z M32.7,26.9c1.9,0,3.8-0.1,5.6-0.2c0.2,2,0.2,4,0.2,6.1
	s-0.1,4.1-0.2,6.1c-1.8-0.1-3.7-0.2-5.6-0.2c-1.9,0-3.8,0.1-5.6,0.2c-0.2-2-0.2-4-0.2-6.1s0.1-4.1,0.2-6.1
	C28.9,26.8,30.8,26.9,32.7,26.9z M56,32.7c0,3.3-0.7,6.5-2,9.3c-2.8-1.2-6.2-2-10-2.6c0.2-2.2,0.3-4.4,0.3-6.7S44.2,28.2,44,26
	c3.8-0.6,7.3-1.5,10-2.6C55.3,26.3,56,29.4,56,32.7z M41.6,52.1c0.7-2.1,1.3-4.5,1.7-7c3,0.5,5.6,1.1,7.8,1.9
	c-2.7,3.4-6.3,6.1-10.4,7.6C41,53.8,41.3,53,41.6,52.1z M40.6,10.9c4.1,1.5,7.7,4.2,10.4,7.6c-2.1,0.8-4.8,1.5-7.8,1.9
	c-0.4-2.5-1-4.9-1.7-7C41.3,12.4,41,11.6,40.6,10.9z"/>
</svg>
