<svg width="65" height="65" viewBox="0 0 65 65" fill="none" xmlns="http://www.w3.org/2000/svg">
<path d="M32.7788 14.2525C33.7424 14.2525 34.5236 13.4712 34.5236 12.5076V6.74485C34.5236 5.78123 33.7424 5 32.7788 5C31.8151 5 31.0339 5.78123 31.0339 6.74485V12.5076C31.0339 13.4712 31.8151 14.2525 32.7788 14.2525Z" fill="url(#paint0_linear_1986_4060)"/>
<path d="M40.9213 17.2134C41.3678 17.2134 41.8144 17.043 42.155 16.7023L46.8079 12.0494C47.4894 11.3681 47.4894 10.2632 46.8079 9.58181C46.1266 8.90051 45.0218 8.90051 44.3404 9.58181L39.6874 14.2347C39.006 14.916 39.006 16.0209 39.6874 16.7023C40.0282 17.043 40.4747 17.2134 40.9213 17.2134Z" fill="url(#paint1_linear_1986_4060)"/>
<path d="M23.4024 16.7023C23.7431 17.043 24.1896 17.2134 24.6361 17.2134C25.0825 17.2134 25.5292 17.043 25.8698 16.7023C26.5512 16.021 26.5512 14.9162 25.8698 14.2347L21.2169 9.58181C20.5356 8.90051 19.4307 8.90051 18.7493 9.58181C18.0679 10.2631 18.0679 11.368 18.7493 12.0494L23.4024 16.7023Z" fill="url(#paint2_linear_1986_4060)"/>
<path d="M48.4509 29.661L41.6777 22.8876C40.3687 21.5786 38.5935 20.8433 36.7423 20.8433H26.1477C23.5066 20.8433 21.0237 21.8719 19.1562 23.7393L18.5625 24.3329H4.74485C3.78123 24.3329 3 25.1141 3 26.0777V44.6894C3 45.6531 3.78123 46.4343 4.74485 46.4343H13.4443L17.5862 50.5761C17.9134 50.9033 18.3572 51.0872 18.8199 51.0872H20.3998C19.8151 50.1821 19.4387 49.171 19.2913 48.1126C17.9868 47.6883 16.813 46.9048 15.909 45.8273C13.2808 42.6949 13.6908 38.0083 16.823 35.38L23.4548 29.8153H36.6964C37.1591 29.8153 37.603 29.9991 37.9302 30.3264L42.8019 35.1982C44.3667 36.763 46.961 36.7963 48.4989 35.2052C49.9928 33.6596 49.9768 31.1868 48.4509 29.661Z" fill="url(#paint3_linear_1986_4060)"/>
<path d="M62.5574 29.6838C62.5574 28.7199 61.7762 27.9388 60.8125 27.9389H51.5688C53.7998 30.8553 53.5843 35.0556 50.9186 37.7216C49.5135 39.1265 47.644 39.9002 45.6544 39.9002C43.6647 39.9002 41.7951 39.1265 40.3903 37.7216L35.9738 33.305H24.3984L18.6011 38.1696C16.9401 39.5632 16.7235 42.0395 18.1172 43.7005C19.5109 45.3615 21.9871 45.5781 23.6481 44.1844C21.9871 45.5781 21.7706 48.0543 23.1642 49.7153C24.5579 51.3763 27.0342 51.5929 28.6952 50.1992C27.0342 51.5929 26.8176 54.0692 28.2113 55.7302C29.6049 57.3911 32.0812 57.6077 33.7422 56.2141L36.8323 53.6211L36.4155 53.9709C34.7545 55.3646 34.538 57.8408 35.9316 59.5018C37.3253 61.1628 39.8016 61.3794 41.4625 59.9857L53.3152 50.0401H60.8128C61.7764 50.0401 62.5576 49.2589 62.5575 48.2953L62.5574 29.6838Z" fill="url(#paint4_linear_1986_4060)"/>
<defs>
<linearGradient id="paint0_linear_1986_4060" x1="39.8778" y1="27.9392" x2="39.8778" y2="60.9046" gradientUnits="userSpaceOnUse">
<stop stop-color="#ADFF00"/>
<stop offset="1" stop-color="#00FF41"/>
</linearGradient>
<linearGradient id="paint1_linear_1986_4060" x1="39.8778" y1="27.9392" x2="39.8778" y2="60.9046" gradientUnits="userSpaceOnUse">
<stop stop-color="#ADFF00"/>
<stop offset="1" stop-color="#00FF41"/>
</linearGradient>
<linearGradient id="paint2_linear_1986_4060" x1="39.8778" y1="27.9392" x2="39.8778" y2="60.9046" gradientUnits="userSpaceOnUse">
<stop stop-color="#ADFF00"/>
<stop offset="1" stop-color="#00FF41"/>
</linearGradient>
<linearGradient id="paint3_linear_1986_4060" x1="39.8778" y1="27.9392" x2="39.8778" y2="60.9046" gradientUnits="userSpaceOnUse">
<stop stop-color="#ADFF00"/>
<stop offset="1" stop-color="#00FF41"/>
</linearGradient>
<linearGradient id="paint4_linear_1986_4060" x1="39.8778" y1="27.9392" x2="39.8778" y2="60.9046" gradientUnits="userSpaceOnUse">
<stop stop-color="#ADFF00"/>
<stop offset="1" stop-color="#00FF41"/>
</linearGradient>
</defs>
</svg>
