<svg width="65" height="65" viewBox="0 0 65 65" fill="none" xmlns="http://www.w3.org/2000/svg">
<path fill-rule="evenodd" clip-rule="evenodd" d="M16.8333 49.9498C15.6937 50.5752 14.385 50.9309 12.9933 50.9309C8.57874 50.9309 5 47.3521 5 42.9375C5 39.8207 6.78385 37.1206 9.38628 35.8024V29.977C6.78385 28.6588 5 25.9586 5 22.8419C5 18.4273 8.57874 14.8485 12.9933 14.8485C14.592 14.8485 16.0811 15.3179 17.3303 16.1262L24.2474 11.9795C24.2548 7.57128 27.8307 4 32.2407 4C36.4457 4 39.8924 7.24705 40.2101 11.3706L47.6481 15.8296C48.7877 15.2042 50.0963 14.8485 51.488 14.8485C55.9026 14.8485 59.4814 18.4273 59.4814 22.8419C59.4814 25.9072 57.7559 28.5695 55.2233 29.9106V35.8688C57.7559 37.2098 59.4814 39.8722 59.4814 42.9375C59.4814 47.3521 55.9026 50.9309 51.488 50.9309C49.8893 50.9309 48.4003 50.4615 47.1511 49.6531L40.234 53.7998C40.2266 58.2081 36.6507 61.7794 32.2407 61.7794C28.0356 61.7794 24.589 58.5323 24.2712 54.4088L16.8333 49.9498ZM32.2407 19.9867C34.659 19.9867 36.8265 18.9127 38.2923 17.2158L43.8321 20.5368C43.6126 21.2667 43.4947 22.0405 43.4947 22.8419C43.4947 26.4701 45.912 29.5336 49.2239 30.51V35.2694C45.912 36.2457 43.4947 39.3093 43.4947 42.9375C43.4947 43.5536 43.5644 44.1533 43.6963 44.7294L37.9392 48.1807C36.4892 46.7067 34.4717 45.7927 32.2407 45.7927C29.8223 45.7927 27.6548 46.8666 26.1891 48.5636L20.6493 45.2426C20.8688 44.5127 20.9867 43.7389 20.9867 42.9375C20.9867 39.3563 18.6316 36.3251 15.3857 35.3083V30.471C18.6316 29.4542 20.9867 26.4231 20.9867 22.8419C20.9867 22.2258 20.917 21.6261 20.7851 21.05L26.5421 17.5987C27.9922 19.0727 30.0097 19.9867 32.2407 19.9867Z" fill="url(#paint0_linear_1986_4053)"/>
<defs>
<linearGradient id="paint0_linear_1986_4053" x1="32.2407" y1="4" x2="32.2407" y2="61.7794" gradientUnits="userSpaceOnUse">
<stop stop-color="#ADFF00"/>
<stop offset="1" stop-color="#00FF41"/>
</linearGradient>
</defs>
</svg>
