<svg width="65" height="65" viewBox="0 0 65 65" fill="none" xmlns="http://www.w3.org/2000/svg">
<path fill-rule="evenodd" clip-rule="evenodd" d="M63.7772 41.745L59.555 23.8032C58.4181 18.9698 53.9629 14 47.1785 14H17.8088C12.8433 14 6.9854 17.199 5.43179 23.8032L1.20969 41.745C0.0635777 46.6153 3.76044 51.2877 8.77016 51.2877C10.899 51.2877 12.9014 50.1536 13.9956 48.329L17.248 42.9093C17.804 41.9819 18.8208 41.4062 19.9021 41.4062H45.0843C46.1655 41.4062 47.1828 41.9824 47.7388 42.9098L50.9907 48.3285C52.0854 50.1536 54.0878 51.2877 56.2191 51.2877C61.2211 51.2877 64.9242 46.6201 63.7772 41.745ZM24.5884 29.5482H22.4807V31.6558C22.4807 32.6746 21.6546 33.5007 20.6354 33.5007C19.6166 33.5007 18.7906 32.6746 18.7906 31.6558V29.5482H16.6829C15.6641 29.5482 14.8381 28.7221 14.8381 27.7033C14.8381 26.6841 15.6641 25.858 16.6829 25.858H18.7906V23.7503C18.7906 22.7316 19.6166 21.9055 20.6354 21.9055C21.6546 21.9055 22.4807 22.7316 22.4807 23.7503V25.858H24.5884C25.6072 25.858 26.4332 26.6841 26.4332 27.7033C26.4332 28.7221 25.6072 29.5482 24.5884 29.5482ZM40.3984 29.5482C39.3802 29.5482 38.5536 28.7216 38.5536 27.7033C38.5536 26.6846 39.3806 25.858 40.3984 25.858C41.4172 25.858 42.2438 26.6846 42.2438 27.7033C42.2438 28.7216 41.4172 29.5482 40.3984 29.5482ZM44.3514 33.5007C43.3332 33.5007 42.5061 32.6741 42.5061 31.6558C42.5061 30.6376 43.3332 29.8105 44.3514 29.8105C45.3697 29.8105 46.1963 30.6376 46.1963 31.6558C46.1963 32.6741 45.3697 33.5007 44.3514 33.5007ZM44.3514 25.5956C43.3332 25.5956 42.5061 24.7691 42.5061 23.7503C42.5061 22.7321 43.3332 21.9055 44.3514 21.9055C45.3697 21.9055 46.1963 22.7321 46.1963 23.7503C46.1963 24.7691 45.3697 25.5956 44.3514 25.5956ZM48.304 29.5482C47.2857 29.5482 46.4586 28.7216 46.4586 27.7033C46.4586 26.6846 47.2857 25.858 48.304 25.858C49.3222 25.858 50.1488 26.6846 50.1488 27.7033C50.1488 28.7216 49.3222 29.5482 48.304 29.5482Z" fill="url(#paint0_linear_1986_4055)"/>
<defs>
<linearGradient id="paint0_linear_1986_4055" x1="32.4935" y1="14" x2="32.4935" y2="51.2877" gradientUnits="userSpaceOnUse">
<stop stop-color="#ADFF00"/>
<stop offset="1" stop-color="#00FF41"/>
</linearGradient>
</defs>
</svg>
