<svg width="65" height="65" viewBox="0 0 65 65" fill="none" xmlns="http://www.w3.org/2000/svg">
<path d="M5.90666 24.4998C6.21945 25.5722 6.65353 26.6064 7.20251 27.5766L5.63855 29.5492C5.12786 30.1939 5.18532 31.1131 5.75983 31.694L8.45368 34.3879C9.03458 34.9688 9.95381 35.0198 10.5985 34.5091L12.5583 32.9579C13.5669 33.5389 14.6393 33.992 15.7564 34.3112L16.0501 36.8327C16.1458 37.6498 16.8353 38.2626 17.6523 38.2626H21.4633C22.2804 38.2626 22.9698 37.6497 23.0656 36.8327L23.3465 34.4006C24.5466 34.0878 25.6956 33.6218 26.7744 33.0154L28.6703 34.5155C29.3151 35.0262 30.2343 34.9687 30.8152 34.3942L33.509 31.7003C34.0899 31.1194 34.141 30.2002 33.6303 29.5555L32.1557 27.6851C32.7685 26.6254 33.2473 25.4956 33.5665 24.3146L35.839 24.0529C36.6562 23.9571 37.2689 23.2677 37.2689 22.4506V18.6396C37.2689 17.8226 36.6561 17.1331 35.839 17.0374L33.5984 16.7757C33.2919 15.6075 32.8324 14.4904 32.2452 13.4435L33.624 11.7007C34.1347 11.056 34.0772 10.1368 33.5027 9.55588L30.8152 6.86842C30.2343 6.28752 29.3151 6.23645 28.6704 6.74713L26.9787 8.08767C25.8808 7.44294 24.7061 6.9514 23.4742 6.61946L23.2188 4.42991C23.1231 3.61282 22.4337 3 21.6166 3H17.8056C16.9885 3 16.2991 3.61282 16.2033 4.42991L15.948 6.61946C14.6841 6.95779 13.4776 7.46847 12.3541 8.13874L10.5986 6.74713C9.95388 6.23645 9.03465 6.2939 8.45375 6.86842L5.7599 9.56227C5.179 10.1432 5.12793 11.0624 5.63861 11.7071L7.10682 13.5647C6.51954 14.6244 6.07269 15.7543 5.77905 16.9289L3.42991 17.197C2.61282 17.2927 2 17.9821 2 18.7992V22.6102C2 23.4273 2.61282 24.1167 3.42991 24.2125L5.90666 24.4998ZM19.7142 14.1904C23.1869 14.1904 26.0148 17.0183 26.0148 20.4909C26.0148 23.9636 23.1869 26.7915 19.7142 26.7915C16.2417 26.7915 13.4137 23.9636 13.4137 20.4909C13.4137 17.0183 16.2416 14.1904 19.7142 14.1904Z" fill="url(#paint0_linear_1986_4061)"/>
<path d="M57.3898 25.4382L55.379 23.7402C54.7598 23.2167 53.8469 23.2422 53.2597 23.7976L52.149 24.8381C51.2106 24.3849 50.2148 24.0657 49.187 23.8806L48.8743 22.3486C48.7147 21.557 47.9806 21.008 47.1762 21.0718L44.5526 21.2953C43.7482 21.3655 43.1163 22.023 43.0907 22.8337L43.0397 24.3913C42.0311 24.7551 41.0799 25.2531 40.2118 25.8786L38.884 24.9977C38.2073 24.5509 37.3073 24.6785 36.7839 25.2977L35.0858 27.3213C34.5623 27.9405 34.5879 28.8534 35.1432 29.4407L36.305 30.679C35.9028 31.5855 35.6155 32.5367 35.4496 33.5133L33.7899 33.8516C32.9984 34.0112 32.4494 34.7453 32.5132 35.5497L32.7366 38.1733C32.8069 38.9776 33.4644 39.6096 34.2751 39.6352L36.0688 39.6925C36.3945 40.5479 36.8222 41.3587 37.3392 42.1183L36.337 43.6312C35.8902 44.3078 36.0178 45.2079 36.637 45.7314L38.6478 47.4294C39.2671 47.9528 40.1798 47.9273 40.7672 47.3719L42.0822 46.1399C42.944 46.5421 43.8504 46.8421 44.7824 47.0208L45.1463 48.821C45.3059 49.6125 46.04 50.1615 46.8443 50.0977L49.4679 49.8743C50.2723 49.8041 50.9042 49.1466 50.9298 48.3358L50.9872 46.5739C51.9447 46.2356 52.8511 45.776 53.6874 45.2079L55.1365 46.1654C55.8132 46.6123 56.7132 46.4846 57.2367 45.8654L58.9347 43.8546C59.4581 43.2354 59.4326 42.3226 58.8773 41.7353L57.709 40.4969C58.1368 39.5905 58.4496 38.6329 58.6282 37.6498L60.2241 37.3242C61.0157 37.1647 61.5647 36.4306 61.5008 35.6262L61.2774 33.0025C61.2072 32.1982 60.5497 31.5662 59.739 31.5407L58.1367 31.4896C57.8047 30.5576 57.3578 29.6768 56.8025 28.8596L57.677 27.5446C58.1367 26.8681 58.009 25.9616 57.3898 25.4382ZM47.5018 40.6054C44.6675 40.848 42.165 38.735 41.9289 35.9008C41.6863 33.0665 43.7994 30.5641 46.6335 30.3279C49.4678 30.0853 51.9703 32.1983 52.2064 35.0326C52.449 37.8669 50.336 40.3693 47.5018 40.6054Z" fill="url(#paint1_linear_1986_4061)"/>
<path d="M15.0862 47.6656C14.2819 47.7486 13.6627 48.4252 13.6563 49.236L13.6371 50.851C13.6244 51.6617 14.2244 52.3511 15.0287 52.4533L16.2161 52.6065C16.414 53.3279 16.6948 54.0173 17.0587 54.6684L16.2927 55.6132C15.782 56.2451 15.8203 57.1516 16.3884 57.7325L17.5183 58.8879C18.0864 59.4688 18.9929 59.5327 19.6376 59.0347L20.5887 58.3006C21.259 58.6964 21.9676 59.0093 22.708 59.2263L22.8357 60.4519C22.9187 61.2562 23.5954 61.8754 24.4061 61.8818L26.0212 61.901C26.8318 61.9137 27.5213 61.3137 27.6234 60.5093L27.7703 59.3475C28.5746 59.1496 29.3407 58.8496 30.0683 58.4538L30.962 59.1752C31.594 59.6859 32.5005 59.6476 33.0814 59.0794L34.2368 57.9495C34.8177 57.3815 34.8816 56.4749 34.3837 55.8302L33.7005 54.9428C34.1219 54.2407 34.4475 53.4938 34.6709 52.7086L35.7306 52.6001C36.5349 52.5171 37.154 51.8404 37.1605 51.0297L37.1796 49.4146C37.1924 48.604 36.5924 47.9145 35.788 47.8124L34.7538 47.6783C34.5559 46.8995 34.2624 46.1463 33.8794 45.4441L34.5241 44.6525C35.0348 44.0206 34.9965 43.1141 34.4283 42.5332L33.2985 41.3778C32.7304 40.7968 31.8238 40.733 31.1791 41.231L30.4066 41.8246C29.679 41.3842 28.9001 41.0458 28.0831 40.816L27.9809 39.8138C27.8979 39.0094 27.2213 38.3903 26.4106 38.3839L24.7955 38.3648C23.9848 38.352 23.2954 38.952 23.1932 39.7564L23.0655 40.7523C22.223 40.9692 21.4123 41.3012 20.659 41.7353L19.8611 41.0841C19.2291 40.5735 18.3226 40.6118 17.7417 41.1799L16.5799 42.3162C15.999 42.8843 15.9351 43.7908 16.433 44.4355L17.1161 45.3165C16.7203 46.0187 16.4075 46.7655 16.2032 47.5507L15.0862 47.6656ZM25.5105 45.8399C27.8277 45.8654 29.6852 47.7741 29.6598 50.0914C29.6342 52.4086 27.7255 54.2661 25.4083 54.2406C23.0911 54.2151 21.2335 52.3064 21.259 49.9892C21.2846 47.672 23.1933 45.8144 25.5105 45.8399Z" fill="url(#paint2_linear_1986_4061)"/>
<defs>
<linearGradient id="paint0_linear_1986_4061" x1="31.7529" y1="3" x2="31.7529" y2="61.9011" gradientUnits="userSpaceOnUse">
<stop stop-color="#ADFF00"/>
<stop offset="1" stop-color="#00FF41"/>
</linearGradient>
<linearGradient id="paint1_linear_1986_4061" x1="31.7529" y1="3" x2="31.7529" y2="61.9011" gradientUnits="userSpaceOnUse">
<stop stop-color="#ADFF00"/>
<stop offset="1" stop-color="#00FF41"/>
</linearGradient>
<linearGradient id="paint2_linear_1986_4061" x1="31.7529" y1="3" x2="31.7529" y2="61.9011" gradientUnits="userSpaceOnUse">
<stop stop-color="#ADFF00"/>
<stop offset="1" stop-color="#00FF41"/>
</linearGradient>
</defs>
</svg>
