<svg width="65" height="65" viewBox="0 0 65 65" fill="none" xmlns="http://www.w3.org/2000/svg">
<path d="M53.3915 42.5722C55.5435 42.5722 57.6075 41.7173 59.1292 40.1955C60.651 38.6738 61.5059 36.6099 61.5059 34.4578V25.7104C61.506 23.7325 60.7837 21.8227 59.4747 20.3399C58.1658 18.8571 56.3603 17.9034 54.3976 17.6582L24.0064 13.8579C22.4324 13.6699 20.8381 13.9523 19.4244 14.6693L18.7698 9.17317C18.5351 7.19902 17.5855 5.3792 16.1004 4.05755C14.6153 2.7359 12.6975 2.00395 10.7095 2H4.70481C3.98745 2 3.29947 2.28497 2.79222 2.79222C2.28497 3.29947 2 3.98745 2 4.70481C2 5.42218 2.28497 6.11016 2.79222 6.61741C3.29947 7.12466 3.98745 7.40963 4.70481 7.40963H10.7095C11.3769 7.40535 12.0223 7.648 12.5217 8.09089C13.021 8.53378 13.3389 9.14564 13.4143 9.8088L17.6879 46.2183C17.8962 47.9686 18.6688 49.6035 19.8888 50.8757C21.1088 52.148 22.7099 52.9883 24.45 53.2697C23.9417 54.0835 23.6591 55.0178 23.631 55.9769C23.6029 56.9359 23.8304 57.8852 24.2901 58.7273C24.7498 59.5695 25.4252 60.2742 26.2471 60.7692C27.069 61.2643 28.0077 61.5318 28.9671 61.5445C29.9265 61.5571 30.8719 61.3143 31.7066 60.8411C32.5412 60.3678 33.2349 59.6811 33.7166 58.8514C34.1984 58.0216 34.4507 57.0787 34.4479 56.1192C34.445 55.1598 34.1871 54.2183 33.7004 53.3915H46.0235C45.5385 54.2106 45.2808 55.1443 45.277 56.0963C45.277 57.531 45.847 58.907 46.8615 59.9215C47.876 60.936 49.2519 61.5059 50.6866 61.5059C52.1214 61.5059 53.4973 60.936 54.5118 59.9215C55.5263 58.907 56.0963 57.531 56.0963 56.0963C56.0909 55.1438 55.8313 54.2101 55.3443 53.3915H58.8011C59.5184 53.3915 60.2064 53.1065 60.7137 52.5992C61.2209 52.092 61.5059 51.404 61.5059 50.6867C61.5059 49.9693 61.2209 49.2813 60.7137 48.7741C60.2064 48.2668 59.5184 47.9818 58.8011 47.9818H25.7483C25.0813 47.9862 24.4362 47.7439 23.9369 47.3016C23.4377 46.8592 23.1195 46.248 23.0434 45.5854L22.6648 42.3396C23.2572 42.4853 23.8643 42.5633 24.4743 42.5722H53.3915Z" fill="url(#paint0_linear_1986_4058)"/>
<defs>
<linearGradient id="paint0_linear_1986_4058" x1="31.7529" y1="2" x2="31.7529" y2="61.5449" gradientUnits="userSpaceOnUse">
<stop stop-color="#ADFF00"/>
<stop offset="0.9999" stop-color="#00FF41"/>
<stop offset="1" stop-color="#181818" stop-opacity="0"/>
</linearGradient>
</defs>
</svg>
