<svg width="66" height="65" viewBox="0 0 66 65" fill="none" xmlns="http://www.w3.org/2000/svg">
<path d="M57.4507 25.3152C57.4507 23.1109 56.5739 20.9943 55.0167 19.4341C53.4564 17.8769 51.3398 17 49.1355 17C40.4545 17 24.5558 17 15.8748 17C13.6705 17 11.5539 17.8769 9.99365 19.4341C8.43644 20.9943 7.55957 23.1109 7.55957 25.3152V40.4337C7.55957 42.638 8.43644 44.7546 9.99365 46.3148C11.5539 47.8721 13.6705 48.7489 15.8748 48.7489H20.9153C22.0582 48.7489 23.174 48.377 24.0902 47.6906L28.5229 44.3646C28.656 44.2678 28.8132 44.2134 28.9765 44.2134H36.0338C36.1971 44.2134 36.3543 44.2678 36.4874 44.3646L40.9201 47.6906C41.8363 48.377 42.9521 48.7489 44.095 48.7489H49.1355C51.3398 48.7489 53.4564 47.8721 55.0167 46.3148C56.5739 44.7546 57.4507 42.638 57.4507 40.4337V25.3152ZM27.9696 30.6067H37.0407C38.2925 30.6067 39.3085 29.5907 39.3085 28.3389C39.3085 27.0871 38.2925 26.0711 37.0407 26.0711H27.9696C26.7178 26.0711 25.7018 27.0871 25.7018 28.3389C25.7018 29.5907 26.7178 30.6067 27.9696 30.6067Z" fill="url(#paint0_linear_1986_4056)"/>
<path d="M4.89538 22.4756L4.25436 22.6056C1.78096 23.0985 0 25.2725 0 27.7943V37.9539C0 40.4757 1.78096 42.6498 4.25436 43.1426L4.89538 43.2726C4.65953 42.3534 4.53556 41.3979 4.53556 40.4334C4.53556 35.9341 4.53556 29.8141 4.53556 25.3148C4.53556 24.3503 4.65953 23.3948 4.89538 22.4756V22.4756Z" fill="url(#paint1_linear_1986_4056)"/>
<path d="M60.1143 22.4756C60.3501 23.3948 60.4741 24.3503 60.4741 25.3148V40.4334C60.4741 41.3979 60.3501 42.3534 60.1143 43.2726L60.7553 43.1426C63.2287 42.6498 65.0096 40.4757 65.0096 37.9539V27.7943C65.0096 25.2725 63.2287 23.0985 60.7553 22.6056L60.1143 22.4756Z" fill="url(#paint2_linear_1986_4056)"/>
<defs>
<linearGradient id="paint0_linear_1986_4056" x1="32.5052" y1="17" x2="32.5052" y2="48.7489" gradientUnits="userSpaceOnUse">
<stop stop-color="#ADFF00"/>
<stop offset="1" stop-color="#00FF41"/>
</linearGradient>
<linearGradient id="paint1_linear_1986_4056" x1="2.44769" y1="22.4756" x2="2.44769" y2="43.2726" gradientUnits="userSpaceOnUse">
<stop stop-color="#ADFF00"/>
<stop offset="1" stop-color="#00FF41"/>
</linearGradient>
<linearGradient id="paint2_linear_1986_4056" x1="62.5619" y1="22.4756" x2="62.5619" y2="43.2726" gradientUnits="userSpaceOnUse">
<stop stop-color="#ADFF00"/>
<stop offset="1" stop-color="#00FF41"/>
</linearGradient>
</defs>
</svg>
