<svg width="65" height="65" viewBox="0 0 65 65" fill="none" xmlns="http://www.w3.org/2000/svg">
<path fill-rule="evenodd" clip-rule="evenodd" d="M38.1012 5.57116L53.6131 14.5315C53.6151 14.5326 53.617 14.5337 53.619 14.5349C57.289 16.6546 59.4803 20.5519 59.4814 24.6916V41.1279C59.4814 45.2698 57.289 49.1678 53.6191 51.2874C53.6175 51.2883 53.616 51.2892 53.6145 51.2901C53.6141 51.2903 53.6136 51.2906 53.6132 51.2908L38.1019 60.2508C38.1017 60.2509 38.1021 60.2507 38.1019 60.2508C36.3054 61.2885 34.2823 61.8225 32.2407 61.8225C30.1991 61.8225 28.1766 61.2889 26.3801 60.2511M26.3801 60.2511L10.8682 51.2908C10.8674 51.2904 10.8666 51.2899 10.8659 51.2895C10.8647 51.2888 10.8635 51.2881 10.8623 51.2874C7.19245 49.1678 5 45.2698 5 41.1279V24.6944C5 20.5525 7.19241 16.6545 10.8623 14.5349C10.8628 14.5346 10.8632 14.5344 10.8636 14.5341C10.8652 14.5332 10.8667 14.5323 10.8682 14.5315L26.3801 5.57116C30.007 3.47628 34.4743 3.47628 38.1012 5.57116M16.3563 41.7763C16.1258 41.6433 15.9839 41.3953 15.9839 41.1279V24.6944C15.9839 24.427 16.1258 24.179 16.3563 24.046L31.8741 15.0823C32.1017 14.9509 32.3796 14.9509 32.6072 15.0823L48.125 24.046C48.3555 24.179 48.4974 24.427 48.4975 24.6944V41.1279C48.4975 41.3953 48.3556 41.6433 48.125 41.7763L32.6072 50.74C32.4934 50.8058 32.3678 50.8386 32.2407 50.8386C32.1136 50.8386 31.988 50.8058 31.8741 50.74L16.3563 41.7763Z" fill="url(#paint0_linear_1986_4054)"/>
<path d="M40.9591 28.0451L32.4421 23.1254C32.3172 23.0533 32.1647 23.0533 32.0398 23.1254L23.5228 28.0451C23.3962 28.1181 23.3184 28.2542 23.3184 28.401V37.4206C23.3184 37.5674 23.3962 37.7035 23.5228 37.7765L32.0398 42.6962C32.1022 42.7323 32.1712 42.7503 32.2409 42.7503C32.3107 42.7503 32.3796 42.7323 32.4421 42.6962L40.9591 37.7765C41.0856 37.7035 41.1635 37.5674 41.1635 37.4206V28.401C41.1635 28.2542 41.0856 28.1181 40.9591 28.0451Z" fill="url(#paint1_linear_1986_4054)"/>
<defs>
<linearGradient id="paint0_linear_1986_4054" x1="32.2407" y1="14.9837" x2="32.2407" y2="50.8386" gradientUnits="userSpaceOnUse">
<stop stop-color="#ADFF00"/>
<stop offset="1" stop-color="#00FF41"/>
</linearGradient>
<linearGradient id="paint1_linear_1986_4054" x1="32.2409" y1="23.0713" x2="32.2409" y2="42.7503" gradientUnits="userSpaceOnUse">
<stop stop-color="#ADFF00"/>
<stop offset="1" stop-color="#00FF41"/>
</linearGradient>
</defs>
</svg>
