<svg width="65" height="65" viewBox="0 0 65 65" fill="none" xmlns="http://www.w3.org/2000/svg">
<path d="M23.8568 52.0984L24.0773 52.0249L23.8568 52.0984C24.161 53.0108 24.4784 53.8379 24.8057 54.5908C20.664 53.0855 17.0673 50.4347 14.3998 47.0228C16.5438 46.2141 19.1905 45.5599 22.1551 45.097C22.5892 47.64 23.1586 50.0031 23.8568 52.0984ZM29.2861 15.1657L29.049 15.0867L29.2861 15.1657C30.0188 12.9676 30.7873 11.5265 31.4329 10.6406C31.7559 10.1973 32.0446 9.8978 32.2783 9.71182C32.5229 9.51716 32.6741 9.47307 32.7269 9.47307C32.7797 9.47307 32.9309 9.51716 33.1755 9.71182C33.4092 9.8978 33.6979 10.1973 34.021 10.6406C34.6665 11.5265 35.4351 12.9675 36.1678 15.1655C36.7453 16.8983 37.2255 18.8572 37.602 20.9787C36.0156 21.0835 34.3836 21.1386 32.7262 21.1386C31.0692 21.1386 29.4377 21.0836 27.8517 20.9788C28.2283 18.8573 28.7085 16.8985 29.2861 15.1657ZM29.2863 50.2886L29.091 50.3537L29.2863 50.2886C28.7087 48.5556 28.2285 46.5968 27.8517 44.4753C29.4381 44.3705 31.0696 44.3155 32.7269 44.3155C34.3842 44.3155 36.0159 44.3705 37.602 44.4753C37.2255 46.5969 36.7453 48.5558 36.1678 50.2886C35.4351 52.4866 34.6666 53.9276 34.021 54.8135C33.698 55.2568 33.4093 55.5563 33.1756 55.7423C32.931 55.9369 32.7797 55.981 32.7269 55.981C32.6741 55.981 32.5229 55.9369 32.2783 55.7423C32.0446 55.5563 31.7559 55.2567 31.4329 54.8134C30.7874 53.9275 30.0189 52.4865 29.2863 50.2886ZM24.8057 10.8633C24.4784 11.6162 24.1611 12.4434 23.8569 13.3557L23.8568 13.3557C23.1586 15.4511 22.5892 17.8142 22.1551 20.3573C19.1905 19.8943 16.5438 19.2401 14.3998 18.4316C17.0671 15.0197 20.6639 12.3686 24.8057 10.8633ZM32.7269 61.7041C48.705 61.7041 61.7038 48.7053 61.7038 32.7272C61.7038 16.749 48.705 3.75 32.7269 3.75C16.7488 3.75 3.75 16.749 3.75 32.7272C3.75 48.7053 16.7488 61.7041 32.7269 61.7041ZM9.47307 32.7272C9.47307 29.4123 10.1704 26.2577 11.4253 23.4019C14.182 24.5521 17.606 25.446 21.4393 26.0367C21.2561 28.2022 21.1602 30.4444 21.1602 32.7272C21.1602 35.0099 21.2561 37.2522 21.4393 39.4176C17.606 40.0085 14.1819 40.9024 11.4255 42.0525C10.1704 39.1967 9.47307 36.0422 9.47307 32.7272ZM32.7262 26.8617C34.6352 26.8617 36.5084 26.7946 38.3265 26.6663C38.4869 28.6215 38.5705 30.6526 38.5705 32.7272C38.5705 34.8018 38.4869 36.8326 38.3266 38.7878C36.5086 38.6595 34.6357 38.5924 32.7269 38.5924C30.818 38.5924 28.9451 38.6595 27.1273 38.7878C26.9669 36.8326 26.8833 34.8016 26.8833 32.7272C26.8833 30.6526 26.9669 28.6216 27.1273 26.6663C28.945 26.7946 30.8177 26.8617 32.7262 26.8617ZM55.9807 32.7272C55.9807 36.042 55.2834 39.1964 54.0284 42.0522C51.2717 40.902 47.8478 40.0083 44.0145 39.4176C44.1977 37.2522 44.2935 35.01 44.2935 32.7272C44.2935 30.4442 44.1977 28.202 44.0145 26.0365C47.8478 25.4458 51.2717 24.5517 54.0281 23.4014C55.2834 26.2574 55.9807 29.4121 55.9807 32.7272ZM41.5971 52.0984C42.2955 50.0031 42.8649 47.64 43.299 45.097C46.2633 45.5599 48.91 46.214 51.0539 47.0226C48.3866 50.4344 44.79 53.0854 40.6483 54.5908C40.9755 53.8379 41.293 53.0108 41.5971 52.0984ZM40.6482 10.8632C44.7897 12.3687 48.3863 15.0194 51.0536 18.4311C48.91 19.2398 46.2633 19.8941 43.2988 20.357C42.8647 17.8141 42.2955 15.4508 41.5971 13.3557C41.2931 12.4433 40.9756 11.6161 40.6482 10.8632Z" fill="url(#paint0_linear_1986_4059)" stroke="#171717" stroke-width="0.5"/>
<defs>
<linearGradient id="paint0_linear_1986_4059" x1="32.7269" y1="4" x2="32.7269" y2="61.4541" gradientUnits="userSpaceOnUse">
<stop stop-color="#ADFF00"/>
<stop offset="1" stop-color="#00FF41"/>
</linearGradient>
</defs>
</svg>
